<svg xmlns="http://www.w3.org/2000/svg" viewBox="0 0 512 512" width="512" height="512">
  <!-- Legs -->
  <!-- Left legs -->
  <path d="M148 310 Q100 340 60 370" stroke="#E8756A" stroke-width="18" fill="none" stroke-linecap="round"/>
  <path d="M138 340 Q95 380 55 420" stroke="#E8756A" stroke-width="18" fill="none" stroke-linecap="round"/>
  <path d="M140 370 Q110 410 80 455" stroke="#E8756A" stroke-width="18" fill="none" stroke-linecap="round"/>
  <!-- Right legs -->
  <path d="M364 310 Q412 340 452 370" stroke="#E8756A" stroke-width="18" fill="none" stroke-linecap="round"/>
  <path d="M374 340 Q417 380 457 420" stroke="#E8756A" stroke-width="18" fill="none" stroke-linecap="round"/>
  <path d="M372 370 Q402 410 432 455" stroke="#E8756A" stroke-width="18" fill="none" stroke-linecap="round"/>

  <!-- Left arm -->
  <path d="M160 260 Q120 200 100 160 Q85 130 95 110" stroke="#E8756A" stroke-width="22" fill="none" stroke-linecap="round"/>
  <!-- Right arm -->
  <path d="M352 260 Q392 200 412 160 Q427 130 417 110" stroke="#E8756A" stroke-width="22" fill="none" stroke-linecap="round"/>

  <!-- Left claw -->
  <ellipse cx="72" cy="88" rx="38" ry="28" fill="#F0867C" transform="rotate(-20 72 88)"/>
  <ellipse cx="118" cy="82" rx="35" ry="25" fill="#F0867C" transform="rotate(25 118 82)"/>
  <ellipse cx="52" cy="68" rx="16" ry="12" fill="#5C5C5C" transform="rotate(-30 52 68)"/>
  <ellipse cx="130" cy="58" rx="16" ry="12" fill="#5C5C5C" transform="rotate(20 130 58)"/>

  <!-- Right claw -->
  <ellipse cx="440" cy="88" rx="38" ry="28" fill="#F0867C" transform="rotate(20 440 88)"/>
  <ellipse cx="394" cy="82" rx="35" ry="25" fill="#F0867C" transform="rotate(-25 394 82)"/>
  <ellipse cx="460" cy="68" rx="16" ry="12" fill="#5C5C5C" transform="rotate(30 460 68)"/>
  <ellipse cx="382" cy="58" rx="16" ry="12" fill="#5C5C5C" transform="rotate(-20 382 58)"/>

  <!-- Body -->
  <ellipse cx="256" cy="310" rx="130" ry="95" fill="#F4A69E"/>
  <ellipse cx="256" cy="295" rx="110" ry="72" fill="#F7BBB5" opacity="0.5"/>

  <!-- Shoulders -->
  <ellipse cx="160" cy="270" rx="42" ry="38" fill="#E8756A"/>
  <ellipse cx="352" cy="270" rx="42" ry="38" fill="#E8756A"/>

  <!-- Eye stalks -->
  <rect x="218" y="200" width="14" height="45" rx="7" fill="#5C5C5C"/>
  <rect x="280" y="200" width="14" height="45" rx="7" fill="#5C5C5C"/>
  <!-- Eyes -->
  <circle cx="225" cy="195" r="12" fill="#5C5C5C"/>
  <circle cx="287" cy="195" r="12" fill="#5C5C5C"/>
</svg>
